<svg xmlns="http://www.w3.org/2000/svg" fill="none" viewBox="0 0 367 367" height="367" width="367">
<g clip-path="url(#clip0_4108_28783)">
<path fill="#00E54A" d="M280.25 182.95C280.99 185.42 279.63 188.05 277.2 188.8C247.71 198.02 228.1 209.21 215.04 220.18C224.6 225.18 234.23 227.72 243.75 227.72C285.37 227.72 316.3 179.72 325.58 163.48C307.61 159.52 291.44 157.5 277.46 157.5C251.41 157.5 232.69 164.34 221.79 177.82C212.7 189.08 210.99 202.7 211 211.4C224.98 200.15 245.22 188.99 274.51 179.84C276.94 179.09 279.5 180.47 280.25 182.95Z"></path>
<path fill="#00E54A" d="M94.76 179.84C124.05 188.98 144.28 200.14 158.25 211.37C158.24 202.64 156.51 188.96 147.41 177.75C136.52 164.32 117.81 157.51 91.81 157.51C77.84 157.51 61.67 159.52 43.69 163.49C52.97 179.74 83.91 227.73 125.52 227.73H125.53C135 227.73 144.58 225.21 154.11 220.26C141.06 209.23 121.48 198 92.08 188.81C89.65 188.05 88.29 185.43 89.03 182.95C89.77 180.46 92.34 179.08 94.76 179.84Z"></path>
<path fill="#00E54A" d="M366.59 183.3C366.59 82.06 284.52 0 183.29 0C82.06 0 0 82.06 0 183.3C0 283.44 80.31 364.83 180.04 366.56L180.02 266.18C180.06 265.74 181.27 247.53 161.29 226.93C149.5 233.65 137.49 237.1 125.53 237.1H125.52C69.99 237.09 34.11 165.43 32.62 162.38L30 157.06L35.67 155.71C56.73 150.69 75.62 148.13 91.82 148.13C120.74 148.13 141.85 156.12 154.57 171.86C168.91 189.63 167.91 211.6 167.03 219.21C176.05 228.17 181.44 236.92 184.65 244.43C187.85 236.93 193.24 228.18 202.25 219.21C201.37 211.6 200.37 189.63 214.72 171.86C227.44 156.12 248.55 148.13 277.46 148.13C293.66 148.13 312.55 150.69 333.61 155.71L339.28 157.06L336.66 162.38C335.16 165.43 299.28 237.1 243.75 237.1C231.75 237.1 219.7 233.62 207.86 226.84C191.28 243.87 189.37 259.24 189.23 264.36V366.5C287.71 363.36 366.59 282.54 366.59 183.3Z"></path>
<path fill="white" d="M207.86 226.851C219.7 233.631 231.75 237.111 243.75 237.111C299.28 237.111 335.16 165.441 336.66 162.391L339.28 157.071L333.61 155.721C312.55 150.701 293.66 148.141 277.46 148.141C248.54 148.141 227.43 156.131 214.72 171.871C200.36 189.641 201.36 211.611 202.25 219.221C193.24 228.191 187.85 236.931 184.65 244.441C181.44 236.941 176.05 228.191 167.03 219.221C167.91 211.611 168.91 189.641 154.57 171.871C141.85 156.131 120.74 148.141 91.82 148.141C75.62 148.141 56.74 150.701 35.67 155.721L30 157.071L32.62 162.391C34.12 165.441 70 237.101 125.52 237.111H125.53C137.49 237.111 149.49 233.661 161.29 226.941C181.27 247.541 180.05 265.751 180.02 266.191L180.04 366.571C181.12 366.591 182.21 366.601 183.29 366.601C185.28 366.601 187.26 366.561 189.23 366.501V264.361C189.37 259.241 191.28 243.881 207.86 226.851ZM221.8 177.821C232.69 164.341 251.42 157.501 277.47 157.501C291.45 157.501 307.61 159.511 325.59 163.481C316.3 179.731 285.37 227.721 243.76 227.721C234.24 227.721 224.61 225.181 215.05 220.181C228.11 209.201 247.71 198.021 277.21 188.801C279.64 188.051 280.99 185.421 280.26 182.951C279.52 180.471 276.95 179.091 274.53 179.851C245.24 189.001 224.99 200.161 211.02 211.411C210.99 202.711 212.71 189.091 221.8 177.821ZM92.08 188.811C121.48 198.001 141.06 209.231 154.11 220.261C144.59 225.211 135 227.731 125.53 227.731H125.52C83.91 227.721 52.97 179.731 43.69 163.491C61.67 159.531 77.84 157.511 91.81 157.511C117.81 157.511 136.52 164.321 147.41 177.751C156.51 188.971 158.24 202.641 158.25 211.371C144.27 200.141 124.04 188.991 94.76 179.841C92.33 179.081 89.77 180.461 89.03 182.941C88.29 185.431 89.65 188.051 92.08 188.811Z"></path>
</g>
<defs>
<clipPath id="clip0_4108_28783">
<rect fill="white" height="366.59" width="366.59"></rect>
</clipPath>
</defs>
</svg>
