<svg width="64" height="74" viewBox="0 0 64 74" fill="none" xmlns="http://www.w3.org/2000/svg">
<path d="M15.3254 68.4184C12.411 68.4253 9.6576 68.4116 6.76037 68.0337C5.90417 67.9238 4.75352 67.7968 4.12682 67.127C3.2775 66.2236 3.48983 64.5096 3.46586 63.3658C3.39735 60.405 3.33224 57.4476 3.26381 54.4868C3.1953 51.526 3.13019 48.5686 3.06177 45.6078C3.01374 43.4782 2.29116 40.0021 4.07888 38.3981C5.53093 37.0962 7.91102 37.0172 9.75008 36.9863C11.7159 36.952 14.4179 36.818 15.9042 38.3602C17.5583 40.0743 17.2056 43.643 17.3631 45.8138C17.5651 48.5823 17.7638 51.3542 17.9658 54.1226C18.2843 58.509 17.9076 64.1317 20.8494 67.7589C23.7911 71.3861 29.0823 71.5407 33.2809 72.0627C38.8871 72.7566 44.6679 73.2616 50.322 73.0417C52.7569 72.9455 55.3083 72.3685 56.8905 70.3522C57.5104 69.5622 57.9521 68.6142 57.8973 67.5975C57.8494 66.6667 56.9487 65.5675 57.3528 64.7191C57.757 63.8707 58.9829 63.3486 59.6062 62.6582C60.2295 61.9678 60.596 61.1709 60.7877 60.2882C61.2159 58.32 61.0446 55.8916 59.8974 54.1845C59.2295 53.1884 57.5548 53.2468 57.2363 54.5349L57.2193 54.6036L60.0275 55.3798L60.0617 55.2424L57.2535 54.4661L57.2363 54.5349C56.9179 55.8298 58.7193 57.1797 59.6713 55.9569C61.5891 53.4907 64.1165 51.2409 63.7021 47.8129C63.5309 46.3944 62.8083 45.4257 61.9282 44.3506C61.5001 43.8319 60.8494 43.2377 60.8562 42.5095C60.8665 41.6783 61.5754 40.7578 61.9076 40.0399C63.2809 37.0653 62.2261 33.9534 59.894 31.7722C57.2295 29.2786 53.7193 28.5058 50.1953 28.2103C48.1714 28.042 46.0926 28.0832 44.0925 27.7089C43.3391 27.568 42.4008 27.3791 41.8666 26.7643C41.0309 25.7991 41.4521 24.2912 41.7124 23.1921C42.6918 19.06 43.5241 14.9519 43.9008 10.7133C44.161 7.77656 44.5378 4.12879 42.5138 1.67631C40.4898 -0.776163 36.9864 -0.346812 34.8357 1.73126C33.2056 3.30786 32.3768 5.57829 31.4418 7.59449C30.4076 9.8237 29.3733 12.0529 28.3392 14.2821C26.1747 18.9432 24.0138 23.6076 21.8494 28.2687C21.0652 29.9621 23.572 31.4459 24.3631 29.7423C27.7022 22.5463 31.0377 15.3503 34.3768 8.15439C35.0617 6.67743 35.685 4.92906 36.8939 3.79559C38.1028 2.66211 39.8459 2.50066 40.6439 4.13219C41.9658 6.83544 41.0274 10.9504 40.6439 13.7635C40.3905 15.6389 40.0549 17.5074 39.6439 19.3553C39.2741 21.0315 38.7056 22.6975 38.5309 24.4114C38.209 27.5749 40.0172 29.8075 43.0651 30.4773C46.6233 31.2639 50.346 30.7658 53.8836 31.731C56.3289 32.3974 60.2535 34.7262 59.6474 37.8416C59.3528 39.3426 58.1884 40.5277 57.9967 42.0836C57.8186 43.5262 58.4213 44.6391 59.298 45.7348C60.298 46.9851 61.25 47.9743 60.6611 49.6952C60.1097 51.2993 58.6303 52.5804 57.6131 53.8891L60.0481 55.3111L60.0651 55.2424C60.5172 53.4185 57.709 52.6388 57.2569 54.4661L57.2227 54.6036C56.7706 56.4274 59.5789 57.2071 60.0309 55.3798L60.0481 55.3111L57.3871 55.6615C58.3905 57.1556 58.4453 59.7386 57.1165 61.0267C55.8837 62.2185 54.2946 63.1185 54.2741 65.0626C54.2638 66.0175 55.072 66.9311 55.0138 67.8104C54.9248 69.1329 52.7809 69.8301 51.7946 69.9984C49.0207 70.4794 45.9419 70.1255 43.1473 69.9915C40.1816 69.8508 37.2227 69.6069 34.2706 69.2634C31.6713 68.9612 28.9624 68.7172 26.4522 67.9513C20.822 66.2407 21.3083 59.9447 20.959 55.1256C20.7432 52.1339 20.5241 49.1422 20.3083 46.1504C20.1371 43.7667 20.233 41.1253 19.4658 38.8377C17.9864 34.4445 13.3185 33.9465 9.30833 34.0805C5.51036 34.2076 1.07889 35.317 0.253536 39.6414C-0.256804 42.3172 0.150771 45.2951 0.212397 47.9984C0.280906 50.9592 0.345932 53.9166 0.414442 56.8774C0.482952 59.8382 0.208996 63.3143 0.736421 66.3609C1.14051 68.6933 2.73639 70.1736 5.00351 70.6854C8.40079 71.4548 11.8871 71.3449 15.3357 71.338C17.209 71.338 17.2124 68.415 15.3357 68.4184H15.3254Z" fill="#00E54A"/>
</svg>
