<svg width="80" height="72" viewBox="0 0 80 72" fill="none" xmlns="http://www.w3.org/2000/svg">
<path d="M13.101 39.121C25.6825 38.5521 37.4169 27.7281 36.8802 14.4647C36.7722 11.821 35.6046 9.08175 32.7326 8.66271C29.6918 8.2164 27.4374 10.5297 25.9323 12.8941C22.2503 18.6792 19.6752 25.3092 18.2105 32.0107C16.5332 39.7036 16.3375 47.6044 17.5726 55.3791C17.8089 56.8645 19.9688 56.6465 20.3401 55.3791C21.4571 51.553 21.1028 41.6933 26.9987 41.7001C30.4377 41.7035 29.8639 45.073 29.2362 47.4204C28.7131 49.376 28.3418 51.4031 29.064 53.369C29.7289 55.1815 31.3421 56.408 33.2962 56.2921C35.7261 56.149 37.6295 54.03 39.0841 52.2787C42.4488 48.2278 44.6223 43.2912 45.3309 38.0547L42.5129 37.6696C42.7829 42.5791 39.6308 47.2262 41.6017 52.1084C43.4477 56.6771 48.3953 56.7794 52.3439 55.1031C60.7676 51.5258 65.9886 42.4667 67.1225 33.5881C67.7367 28.7774 67.0516 23.5784 64.2302 19.5377C61.7564 15.9979 57.9935 13.412 53.6567 13.0407C49.8836 12.717 45.2365 14.6862 44.8719 18.9722C44.5615 22.6449 47.9127 26.0144 51.534 24.236C55.4656 22.3042 56.0428 17.146 55.0371 13.3404C53.8221 8.73767 50.4405 5.04444 46.3232 2.86058C38.2066 -1.44235 28.3452 -0.59067 20.303 3.41596C11.7882 7.65761 5.67967 15.3983 2.58829 24.3722C-0.503136 33.3462 -1.08024 44.5313 2.2575 53.5938C3.92807 58.1353 6.81359 61.8591 10.9073 64.4177C14.8525 66.8844 19.4356 68.1961 23.9545 69.0921C33.691 71.0273 44.1531 71.2044 53.5724 67.7089C55.8707 66.8537 58.0812 65.7942 60.1871 64.5302L58.4491 64.3054C63.4236 70.1211 71.5199 72.5605 78.8535 70.5708C79.9571 70.271 80.3587 68.455 79.1977 67.9235C73.6191 65.3786 69.7481 59.9001 69.4242 53.6892C69.3262 51.8358 66.4576 51.8222 66.5555 53.6892C66.9301 60.8541 71.2398 67.4568 77.7499 70.4243L78.0942 67.777C71.6886 69.5146 64.8074 67.3137 60.4841 62.2577C60.0758 61.7808 59.2624 61.7194 58.7461 62.0328C51.6588 66.2813 43.4647 67.7804 35.2975 67.5352C27.6736 67.3035 18.9597 66.0429 12.3618 61.9205C5.05861 57.3551 3.13499 48.6333 3.00001 40.494C2.86503 32.3548 4.71438 24.4097 8.94983 17.6094C13.1853 10.809 19.3175 6.14151 26.6511 4.00192C33.7754 1.9237 42.5737 2.50633 48.3075 7.72914C51.0682 10.2435 53.2855 14.3524 52.5296 18.2192C52.2663 19.5582 51.3416 21.4899 49.8668 21.7897C48.0916 22.1509 47.4065 19.9398 47.8453 18.5804C49.0602 14.8294 54.7468 15.7015 57.3286 17.0711C60.7642 18.8938 63.0693 22.2599 63.9771 26.0212C66.0054 34.4228 62.0433 44.562 55.4454 49.9041C52.8602 51.9959 46.3468 55.7573 44.3084 51.1544C42.4353 46.9263 45.6212 42.051 45.3782 37.6662C45.2938 36.1434 42.7896 35.5743 42.5602 37.2813C41.8278 42.7018 39.5026 48.0302 35.5641 51.8699C34.744 52.6705 33.0836 54.1832 32.0306 52.9192C31.4468 52.2175 31.4568 50.9841 31.548 50.1391C31.8146 47.7134 33.1342 45.458 32.5469 42.9505C31.5446 38.6713 26.2528 37.7514 23.0264 40.0988C18.44 43.4411 19.0002 49.7133 17.5693 54.6057H20.3367C18.5682 43.4751 20.0667 31.8131 24.6227 21.5137C25.75 18.9688 27.0358 16.4544 28.5545 14.1275C29.2767 13.0202 30.2217 11.7869 31.5986 11.5518C33.1949 11.2759 33.8294 12.608 33.9779 13.9912C34.5246 19.0403 32.0407 24.7708 28.8548 28.5322C24.9062 33.1929 19.1487 35.9491 13.0942 36.2216C11.2549 36.3034 11.2447 39.2027 13.0942 39.1176L13.101 39.121Z" fill="#00E54A"/>
</svg>
