<svg width="66" height="77" viewBox="0 0 66 77" fill="none" xmlns="http://www.w3.org/2000/svg">
<path d="M3.06663 66.7529C2.93318 56.5141 2.60406 46.2569 2.6724 36.015C2.68795 33.6207 3.16914 31.6204 4.79272 29.7923C6.36973 28.0167 8.25724 26.4872 10.0112 24.893C13.8979 21.357 17.7877 17.821 21.6744 14.2849C26.0951 10.2626 30.5188 6.24351 34.9395 2.22123H33.0738C38.7393 7.69913 44.4048 13.174 50.0704 18.6519C52.6997 21.1939 55.5527 23.622 57.7537 26.5518C58.6944 27.8043 59.5698 29.1061 60.5011 30.3679C61.2741 31.4173 61.9447 32.122 62.2147 33.3869C62.7549 35.9104 62.7829 38.6032 62.7456 41.1729C62.6897 44.989 62.4879 48.8112 62.2799 52.6211C62.1806 54.4338 62.0689 56.2464 61.9477 58.059C61.8857 58.9638 61.8236 59.8716 61.7553 60.7764C61.718 61.2658 61.746 61.8074 61.6404 62.2844C61.4697 63.0661 61.4169 63.3769 60.5849 63.6324C59.9082 63.8416 58.9892 63.6877 58.2752 63.7123C57.2508 63.7431 56.2232 63.7769 55.1988 63.8077C53.1468 63.8724 51.0979 63.937 49.0458 63.9985C40.2262 64.2756 31.4067 64.5494 22.5871 64.8264L23.9065 66.1343C23.3166 60.4872 23.714 54.406 25.8871 49.0943C26.8867 46.6539 28.5103 44.2319 31.0218 43.1394C33.3438 42.1331 35.8771 42.367 37.7304 44.1334C41.4712 47.7002 42.4615 53.8521 42.7377 58.7453C43.0482 64.2017 42.3155 69.6673 40.6982 74.8867C40.1984 76.4993 42.7439 77.1887 43.2437 75.5822C46.075 66.4452 46.73 55.4062 42.5856 46.5401C40.7696 42.6501 37.3702 39.4341 32.785 39.9911C28.0788 40.5666 24.9961 44.2473 23.3384 48.3958C21.1312 53.9229 20.6468 60.2625 21.2616 66.1313C21.333 66.8176 21.8079 67.4638 22.5809 67.4392C31.1956 67.1714 39.8103 66.9006 48.425 66.6329C50.477 66.5683 52.5259 66.5037 54.5779 66.442C56.6299 66.3805 58.9272 66.479 61.0413 66.1989C64.9652 65.6758 64.3816 61.0011 64.5834 58.059C65.077 50.7408 65.8438 43.1917 65.1919 35.8642C65.0832 34.6548 64.9621 33.4084 64.6517 32.2329C64.2947 30.8664 63.4347 29.9493 62.609 28.8199C60.4266 25.8378 58.3528 23.0065 55.6831 20.4276C48.7758 13.7433 41.8592 7.05594 34.9426 0.371662C34.4149 -0.136119 33.6077 -0.111503 33.0769 0.371662C24.9185 7.79144 16.7633 15.2082 8.60489 22.628C5.40115 25.5393 1.08298 28.5029 0.266471 33.033C-0.168134 35.4426 0.0522715 37.9723 0.0832965 40.4066C0.117466 43.0317 0.151636 45.6568 0.185806 48.2788C0.266471 54.4368 0.347222 60.5949 0.427887 66.7498C0.449647 68.4332 3.08839 68.4363 3.06663 66.7498V66.7529Z" fill="#00E54A"/>
</svg>
