<svg width="64" height="66" viewBox="0 0 64 66" fill="none" xmlns="http://www.w3.org/2000/svg">
<g clip-path="url(#clip0_1336_3229)">
<mask id="mask0_1336_3229" style="mask-type:luminance" maskUnits="userSpaceOnUse" x="10" y="2" width="44" height="64">
<path d="M53.9194 2.37219H10.3691V65.2361H53.9194V2.37219Z" fill="white"/>
</mask>
<g mask="url(#mask0_1336_3229)">
<path d="M32.1401 35.5338C38.5863 35.5338 43.8123 30.2708 43.8123 23.7785C43.8123 17.2862 38.5863 12.0232 32.1401 12.0232C25.6939 12.0232 20.4682 17.2862 20.4682 23.7785C20.4682 30.2708 25.6939 35.5338 32.1401 35.5338Z" stroke="white" stroke-width="3.5" stroke-miterlimit="10"/>
<path d="M37.481 20.7902L29.669 28.6508L26.8077 25.7691" stroke="#00E54A" stroke-width="3.5" stroke-linecap="round" stroke-linejoin="round"/>
<path d="M53.162 24.2999C53.162 26.9106 48.969 28.6582 48.034 30.9265C47.0994 33.1949 48.7638 37.4961 47.0002 39.2651C45.2366 41.0343 41.058 39.3293 38.7207 40.2993C36.3834 41.2695 34.7261 45.4639 32.141 45.4639C29.5559 45.4639 27.8136 41.2411 25.5614 40.2993C23.3091 39.3578 19.0383 41.0343 17.2819 39.258C15.5254 37.4819 17.2182 33.2733 16.255 30.9194C15.2917 28.5655 11.1272 26.8964 11.1272 24.2928C11.1272 21.6892 15.3201 19.9345 16.255 17.6661C17.2253 15.3122 15.5254 11.0965 17.289 9.32757C19.0525 7.55856 23.2312 9.26334 25.5684 8.29327C27.9056 7.32316 29.5488 3.12891 32.141 3.12891C34.7332 3.12891 36.4684 7.35168 38.7207 8.29327C40.9728 9.23483 45.2438 7.55856 47.0002 9.33469C48.7566 11.1108 47.0638 15.3193 48.0272 17.6733C48.9618 19.9416 53.1548 21.6963 53.1548 24.2999H53.162Z" stroke="white" stroke-width="3.5" stroke-linecap="round" stroke-linejoin="round"/>
<path d="M30.1295 44.736L24.7326 64.4806L22.4379 58.8312L17.6006 62.5045L23.7199 40.1068" stroke="white" stroke-width="3.5" stroke-linecap="round" stroke-linejoin="round"/>
<path d="M33.8765 45.3779L39.0964 64.4806L41.3841 58.8312L46.2284 62.5045L40.1018 40.1068" stroke="white" stroke-width="3.5" stroke-linecap="round" stroke-linejoin="round"/>
</g>
</g>
<defs>
<clipPath id="clip0_1336_3229">
<rect width="64" height="66" fill="white"/>
</clipPath>
</defs>
</svg>
