<svg width="36" height="64" viewBox="0 0 36 64" fill="none" xmlns="http://www.w3.org/2000/svg">
<mask id="mask0_1336_3160" style="mask-type:luminance" maskUnits="userSpaceOnUse" x="0" y="0" width="36" height="64">
<path d="M35.5976 0H0V64H35.5976V0Z" fill="white"/>
</mask>
<g mask="url(#mask0_1336_3160)">
<path d="M32.1102 9.52505C29.8641 6.85622 26.7255 5.44288 23.035 5.44288H18.4843V0.683649C18.4843 0.308956 18.1823 0 17.8014 0C17.4205 0 17.1185 0.302383 17.1185 0.683649V5.44947H12.5415C9.07437 5.44947 6.02089 6.89564 3.71602 9.63022C0.636253 13.2851 -0.63765 18.7477 0.30137 24.2366L4.07718 46.2383C4.95712 51.3655 9.40929 55.0862 14.6691 55.0862H17.1119V58.7478H14.4853C14.111 58.7478 13.8023 59.05 13.8023 59.4314C13.8023 59.8127 14.1044 60.1149 14.4853 60.1149H17.1119V63.3229C17.1119 63.6978 17.414 64.0064 17.7948 64.0064C18.1757 64.0064 18.4778 63.7042 18.4778 63.3229V60.1149H19.5087C19.883 60.1149 20.1917 59.8127 20.1917 59.4314C20.1917 59.05 19.8896 58.7478 19.5087 58.7478H18.4778V55.0862H20.8746C26.1343 55.0862 30.5867 51.3591 31.4732 46.2319L35.2553 24.2366C36.2338 18.5374 35.0584 13.0419 32.1034 9.53164L32.1102 9.52505ZM33.9158 24L30.1334 45.9952C29.3654 50.4649 25.4712 53.7191 20.8812 53.7191H14.6823C10.0922 53.7191 6.19819 50.4718 5.42989 46.0016L1.64753 24.0066C0.774175 18.9055 1.93648 13.8636 4.76013 10.5111C6.79574 8.09202 9.48806 6.81021 12.5415 6.81021H23.035C26.3116 6.81021 29.0893 8.0526 31.0661 10.4059C33.7647 13.6138 34.8285 18.6952 33.9158 24Z" fill="white"/>
<path d="M21.9924 15.73H17.8226H13.6134C10.0346 15.73 7.5787 16.5977 6.10125 18.366C4.56464 20.2131 4.15095 22.974 4.847 26.8064L7.42768 40.8214C8.12376 43.9566 12.0966 48.6896 16.4962 48.6831H17.7833H19.1031C23.5028 48.6831 27.4757 43.9502 28.1717 40.8081L30.7522 26.8064C31.4482 22.974 31.0411 20.2131 29.4979 18.366C28.0206 16.5911 25.5648 15.73 21.9859 15.73H21.9924ZM30.0891 26.6881L27.5083 40.6767C26.8516 43.6283 23.0366 48.006 19.1031 48.006H17.8161H16.4962C12.5693 48.006 8.74759 43.6283 8.09748 40.6896L5.5168 26.6881C4.86014 23.066 5.2213 20.4892 6.62658 18.8064C7.96615 17.1959 10.2513 16.4136 13.6134 16.4136H17.7833H21.9924C25.3546 16.4136 27.6397 17.1959 28.9795 18.8064C30.3845 20.4892 30.7458 23.066 30.0891 26.6881Z" fill="white" stroke="white" stroke-width="2" stroke-miterlimit="10"/>
<path d="M18.8991 21.4038H16.7059C16.3316 21.4038 16.0229 21.7062 16.0229 22.0875C16.0229 22.4687 16.325 22.7711 16.7059 22.7711H18.8991C19.2734 22.7711 19.582 22.4687 19.582 22.0875C19.582 21.7062 19.28 21.4038 18.8991 21.4038Z" fill="#00E54A"/>
<path d="M18.8991 25.5969H16.7059C16.3316 25.5969 16.0229 25.8993 16.0229 26.2806C16.0229 26.6618 16.325 26.9642 16.7059 26.9642H18.8991C19.2734 26.9642 19.582 26.6618 19.582 26.2806C19.582 25.8993 19.28 25.5969 18.8991 25.5969Z" fill="#00E54A"/>
<path d="M18.8991 30.6006H16.7059C16.3316 30.6006 16.0229 30.903 16.0229 31.2842C16.0229 31.6655 16.325 31.9679 16.7059 31.9679H18.8991C19.2734 31.9679 19.582 31.6655 19.582 31.2842C19.582 30.903 19.28 30.6006 18.8991 30.6006Z" fill="#00E54A"/>
<path d="M18.8991 35.3455H16.7059C16.3316 35.3455 16.0229 35.6478 16.0229 36.0291C16.0229 36.4104 16.325 36.7128 16.7059 36.7128H18.8991C19.2734 36.7128 19.582 36.4104 19.582 36.0291C19.582 35.6478 19.28 35.3455 18.8991 35.3455Z" fill="#00E54A"/>
<path d="M8.94447 46.1591C8.7803 45.8176 8.3732 45.6793 8.03828 45.8373C7.69681 46.0016 7.55893 46.4091 7.71654 46.7442L9.80472 51.1027C9.92291 51.3458 10.1659 51.4905 10.422 51.4905C10.5205 51.4905 10.619 51.4708 10.7175 51.4246C11.0589 51.2602 11.1968 50.8527 11.0392 50.5176L8.95106 46.1591H8.94447Z" fill="white"/>
<path d="M27.5666 45.8437C27.225 45.6794 26.8179 45.824 26.6604 46.166L24.5722 50.524C24.4079 50.866 24.5525 51.2735 24.8941 51.4314C24.9858 51.4772 25.091 51.4969 25.1895 51.4969C25.4455 51.4969 25.6886 51.3523 25.8068 51.1091L27.8949 46.7511C28.0589 46.4091 27.9146 46.0016 27.573 45.8437H27.5666Z" fill="white"/>
<path d="M10.4869 14.3504C10.8612 14.3504 11.1699 14.0481 11.1699 13.6668V8.83524C11.1699 8.46055 10.8678 8.15161 10.4869 8.15161C10.1061 8.15161 9.804 8.454 9.804 8.83524V13.6668C9.804 14.0415 10.1061 14.3504 10.4869 14.3504Z" fill="white"/>
<path d="M13.521 14.3504C13.8952 14.3504 14.2039 14.0481 14.2039 13.6668V8.83524C14.2039 8.46055 13.9018 8.15161 13.521 8.15161C13.1401 8.15161 12.838 8.454 12.838 8.83524V13.6668C12.838 14.0415 13.1401 14.3504 13.521 14.3504Z" fill="white"/>
<path d="M22.0831 14.3504C22.4574 14.3504 22.766 14.0481 22.766 13.6668V8.83524C22.766 8.46055 22.4639 8.15161 22.0831 8.15161C21.7022 8.15161 21.4002 8.454 21.4002 8.83524V13.6668C21.4002 14.0415 21.7022 14.3504 22.0831 14.3504Z" fill="white"/>
<path d="M25.1179 14.3504C25.4921 14.3504 25.8007 14.0481 25.8007 13.6668V8.83524C25.8007 8.46055 25.4989 8.15161 25.1179 8.15161C24.737 8.15161 24.4348 8.454 24.4348 8.83524V13.6668C24.4348 14.0415 24.737 14.3504 25.1179 14.3504Z" fill="white"/>
</g>
</svg>
