<svg width="170" height="97" viewBox="0 0 170 97" fill="none" xmlns="http://www.w3.org/2000/svg">
<path d="M72.6793 67.9039C69.3751 67.9039 67.2457 70.3082 67.2457 73.8707C67.2457 77.4332 69.3605 79.7935 72.5178 79.7935C75.6752 79.7935 77.9364 77.4332 77.9364 73.8707C77.9364 70.3082 75.8511 67.9039 72.6793 67.9039ZM72.6206 78.1369C70.6822 78.1369 69.2283 76.407 69.2283 73.8121C69.2283 71.2172 70.5206 69.5459 72.5619 69.5459C74.6032 69.5459 75.9395 71.3052 75.9395 73.9001C75.9395 76.495 74.7502 78.1369 72.6353 78.1369H72.6206ZM141.496 63.9163C140.82 63.9163 140.277 64.4587 140.277 65.1331C140.277 65.8075 140.82 66.3499 141.496 66.3499C142.171 66.3499 142.714 65.8075 142.714 65.1331C142.714 64.4587 142.171 63.9163 141.496 63.9163ZM61.6359 77.9756C58.1849 77.9756 56.0261 75.498 56.0261 71.6717C56.0261 67.8453 58.6107 65.441 61.7975 65.441C64.0003 65.441 65.3807 66.3792 65.5716 66.4965L66.4821 65.0451C66.2912 64.8545 64.7786 63.5938 61.68 63.5938C57.3624 63.5938 53.8673 66.6431 53.8673 71.8623C53.8673 77.0814 57.1715 79.8375 61.3716 79.8375C64.5436 79.8375 66.4674 78.3861 66.629 78.1955L65.7185 76.7442C65.5569 76.8321 63.8828 77.9609 61.6359 77.9609V77.9756ZM150.071 67.9039C146.767 67.9039 144.638 70.3082 144.638 73.8707C144.638 77.4332 146.753 79.7935 149.91 79.7935C153.068 79.7935 155.329 77.4332 155.329 73.8707C155.329 70.3082 153.243 67.9039 150.071 67.9039ZM150.028 78.1369C148.074 78.1369 146.62 76.407 146.62 73.8121C146.62 71.2172 147.913 69.5459 149.954 69.5459C151.996 69.5459 153.332 71.3052 153.332 73.9001C153.332 76.495 152.128 78.1369 150.028 78.1369ZM162.745 67.9039C160.821 67.9039 159.397 68.9302 159.206 69.0474V68.1971H157.429V79.5296H159.427V70.5575C159.529 70.4842 160.954 69.5752 162.407 69.5752C163.112 69.5752 163.7 69.8391 163.994 70.1323C164.581 70.7187 164.61 71.657 164.61 73.0791V79.5149H166.607V72.9325C166.607 71.0999 166.564 69.9271 165.477 68.8569C165.124 68.505 164.331 67.8746 162.76 67.8746L162.745 67.9039ZM91.6678 67.9039C89.9493 67.9039 88.6717 68.6223 87.7318 69.2087C87.2181 68.505 86.3659 67.9039 84.942 67.9039C83.1648 67.9039 81.6081 68.9595 81.4611 69.0474V68.1971H79.6847V79.5296H81.6816V70.5135C81.8427 70.4255 83.2086 69.5752 84.5894 69.5752C85.265 69.5752 85.7638 69.7951 86.0727 70.0883C86.6599 70.7041 86.6302 71.7303 86.6302 73.255V79.5296H88.5982V73.1817C88.5982 72.2727 88.5982 71.0266 88.4074 70.5281C88.6717 70.3669 90.0227 69.5606 91.4176 69.5606C92.0932 69.5606 92.6225 69.7511 92.9603 70.147C93.5475 70.7774 93.5326 72.1848 93.5326 72.8885V79.5149H95.5296V72.9325C95.5296 71.0999 95.4858 69.9271 94.3989 68.8569C94.0463 68.505 93.2535 67.8746 91.6827 67.8746L91.6678 67.9039ZM116.045 79.5443H118.042V68.2118H116.045V79.5443ZM117.029 63.9163C116.354 63.9163 115.811 64.4587 115.811 65.1331C115.811 65.8075 116.354 66.3499 117.029 66.3499C117.705 66.3499 118.248 65.8075 118.248 65.1331C118.248 64.4587 117.705 63.9163 117.029 63.9163ZM109.686 67.9039C107.983 67.9039 106.676 68.6223 105.751 69.2087C105.237 68.505 104.385 67.9039 102.961 67.9039C101.184 67.9039 99.6274 68.9595 99.4952 69.0474V68.1971H97.718V79.5296H99.715V70.5135C99.8768 70.4255 101.243 69.5752 102.623 69.5752C103.298 69.5752 103.798 69.7951 104.106 70.0883C104.693 70.7041 104.664 71.7303 104.664 73.255V79.5296H106.632V73.1817C106.632 72.2727 106.632 71.0266 106.441 70.5281C106.706 70.3669 108.057 69.5606 109.437 69.5606C110.112 69.5606 110.626 69.7511 110.994 70.147C111.581 70.7774 111.552 72.1848 111.552 72.8885V79.5149H113.549V72.9325C113.549 71.0999 113.505 69.9271 112.418 68.8569C112.066 68.505 111.273 67.8746 109.701 67.8746L109.686 67.9039ZM122.654 70.9973C122.654 70.147 123.359 69.4726 124.739 69.4726C126.12 69.4726 127.294 70.147 127.441 70.2496L128.19 68.9155C128.073 68.8275 126.81 67.9039 124.607 67.9039C122.286 67.9039 120.642 69.194 120.642 71.1146C120.642 74.721 126.252 74.2079 126.252 76.5243C126.252 77.5358 125.297 78.2102 124.064 78.2102C122.419 78.2102 121.274 77.4919 121.038 77.3453L120.289 78.7233C120.436 78.8406 121.934 79.8375 124.181 79.8375C126.428 79.8375 128.337 78.5767 128.337 76.3777C128.337 72.7712 122.654 73.167 122.654 70.9973ZM140.511 79.5443H142.509V68.2118H140.511V79.5443ZM132.317 70.9973C132.317 70.147 133.022 69.4726 134.402 69.4726C135.782 69.4726 136.958 70.147 137.105 70.2496L137.854 68.9155C137.736 68.8275 136.473 67.9039 134.27 67.9039C131.95 67.9039 130.305 69.194 130.305 71.1146C130.305 74.721 135.915 74.2079 135.915 76.5243C135.915 77.5358 134.96 78.2102 133.727 78.2102C132.082 78.2102 130.936 77.4919 130.702 77.3453L129.953 78.7233C130.1 78.8406 131.597 79.8375 133.844 79.8375C136.091 79.8375 138 78.5767 138 76.3777C138 72.7712 132.331 73.167 132.331 70.9973H132.317Z" fill="#73797D"/>
<path d="M61.5622 59.9264C65.0573 59.9264 67.0692 58.1965 67.2601 58.0059L65.8944 55.8069C65.6447 55.9389 63.9999 57.0823 61.9587 57.0823C59.0216 57.0823 57.1418 54.9713 57.1418 51.7606C57.1418 48.55 59.3153 46.5122 62.1202 46.5122C64.3671 46.5122 65.6153 47.5824 65.8062 47.685L67.2161 45.5299C67.0545 45.3687 65.4538 43.756 61.9734 43.756C57.3621 43.756 53.8376 46.8347 53.8376 51.9659C53.8376 57.097 57.2006 59.9264 61.5475 59.9264H61.5622ZM68.1559 56.1588C68.1559 58.3138 69.5657 59.8238 71.842 59.8238C73.6483 59.8238 74.8527 58.9002 75.0583 58.7536V59.5599H77.7746V52.7429C77.7746 51.2622 77.8043 50.0747 76.8496 49.1364C75.7339 48.0222 74.0888 47.861 73.1196 47.861C70.5056 47.861 68.9489 48.9458 68.7874 49.0778L69.83 51.0716C69.9916 50.9836 71.3574 50.236 72.8699 50.236C73.7217 50.236 74.2357 50.4412 74.4852 50.6904C74.8081 51.013 74.8378 51.3355 74.8378 52.0392H74.5149C73.1196 52.0392 68.1706 52.1125 68.1706 56.1588H68.1559ZM74.823 56.7599C74.6909 56.8332 73.9126 57.4488 72.6497 57.4488C71.886 57.4488 70.8874 57.1263 70.8874 55.9389C70.8874 54.5022 72.3266 54.165 74.3382 54.165H74.823V56.7599ZM82.3713 52.0832C82.7239 51.5701 83.6637 50.4412 85.5731 50.4412C85.7342 50.4412 86.1751 50.4852 86.2627 50.5145L86.9828 48.1542C86.9828 48.1542 86.4981 47.861 85.6755 47.861C83.3995 47.861 81.9897 49.459 81.9014 49.6202V48.1835H79.2437V59.5599H82.3713V52.0832ZM92.2105 47.8463C88.9649 47.8463 86.7475 50.4412 86.7475 53.9304C86.7475 57.2436 88.7155 59.8678 92.431 59.8678C94.9565 59.8678 96.6899 58.695 96.7634 58.6217L95.7501 56.6279C95.2653 56.8625 94.1488 57.4342 92.7101 57.4342C90.4482 57.4342 89.7437 55.7043 89.7874 54.8687H97.2919C97.2919 54.7074 97.3358 54.3849 97.3358 53.9011C97.3358 50.2066 95.5444 47.8463 92.2105 47.8463ZM89.7585 52.6403C89.9931 51.2182 90.8743 50.1627 92.284 50.1627C94.2082 50.1627 94.4428 52.0099 94.4428 52.6403H89.7585ZM120.304 59.8825C121.919 59.8825 123.344 58.8416 123.52 58.7096V59.5746H126.178V48.1982H123.05V56.5253C122.86 56.6572 121.934 57.2436 120.935 57.2436C120.201 57.2436 119.848 56.9651 119.716 56.8332C119.29 56.408 119.232 55.675 119.232 54.1943V48.1982H116.104V54.3262C116.104 55.8069 116.06 57.5221 117.337 58.7829C118.072 59.5306 119.099 59.8971 120.304 59.8971V59.8825ZM134.328 58.7536V59.5599H137.045V52.7429C137.045 51.2622 137.075 50.0747 136.12 49.1364C135.004 48.0222 133.359 47.861 132.39 47.861C129.776 47.861 128.219 48.9458 128.058 49.0778L129.101 51.0716C129.262 50.9836 130.628 50.236 132.14 50.236C133.007 50.236 133.506 50.4412 133.756 50.6904C134.079 51.013 134.108 51.3355 134.108 52.0392H133.785C132.39 52.0392 127.441 52.1125 127.441 56.1588C127.441 58.3138 128.851 59.8238 131.127 59.8238C132.933 59.8238 134.137 58.9002 134.343 58.7536H134.328ZM130.158 55.9535C130.158 54.5168 131.597 54.1796 133.609 54.1796H134.094V56.7745C133.961 56.8478 133.183 57.4635 131.92 57.4635C131.156 57.4635 130.158 57.141 130.158 55.9535ZM141.701 42.8031H138.572V59.5453H141.701V42.8031ZM144.887 46.7614C145.886 46.7614 146.664 45.9698 146.664 44.9875C146.664 44.0053 145.871 43.1989 144.887 43.1989C143.903 43.1989 143.095 43.9906 143.095 44.9875C143.095 45.9844 143.889 46.7614 144.887 46.7614ZM146.458 48.1688H143.331V59.5453H146.458V48.1688ZM154.55 57.2729C153.185 57.2729 153.111 56.2321 153.111 55.3231V50.7637H156.357V48.1688H153.111V45.0022H149.983V48.1688H148.015V50.7637H149.983V55.2059C149.983 56.8038 149.983 57.8886 150.953 58.8562C151.716 59.6186 152.876 59.8678 153.889 59.8678C155.578 59.8678 156.665 59.1934 156.753 59.1348L155.975 56.9798C155.769 57.0531 155.255 57.2583 154.536 57.2583L154.55 57.2729ZM159.499 62.4041C158.603 62.4041 157.899 62.0815 157.737 62.0082L156.812 64.222C156.9 64.2659 157.986 64.9403 159.661 64.9403C161.541 64.9403 162.51 64.2513 162.994 63.7675C163.802 62.9612 164.316 61.9203 165.197 59.6772L169.72 48.1835H166.636L163.787 56.1588L160.733 48.1835H157.414L162.187 59.5599C161.996 60.0731 161.599 61.2752 161.056 61.8176C160.689 62.1842 160.204 62.4041 159.499 62.4041ZM114.723 51.7313C114.723 47.0986 111.742 43.756 107.16 43.756C102.578 43.756 99.6118 46.9813 99.6118 51.7313C99.6118 56.4813 102.608 59.8971 107.043 59.9704C107.043 59.9704 107.22 59.9704 107.234 59.9704C109.378 60.0144 110.876 60.7328 111.815 61.9056C112.139 61.7004 114.474 59.6919 114.474 59.6919C114.474 59.6919 113.666 58.7243 111.801 58.4751C113.622 57.0677 114.738 54.7074 114.738 51.7313H114.723ZM107.234 57.2143C104.796 57.2143 102.931 55.1912 102.931 51.9512C102.931 48.7113 104.561 46.4536 107.043 46.4536C109.525 46.4536 111.39 48.6526 111.39 51.7167C111.39 54.1943 110.435 57.2143 107.234 57.2143Z" fill="#73797C"/>
<path d="M37.815 81.2887C43.9535 76.9492 47.9479 69.8097 47.9479 61.7464C47.9626 48.5228 37.2276 37.806 23.9813 37.806C10.735 37.806 0 48.5228 0 61.7464C0 74.9702 10.735 85.6869 23.9813 85.6869H24.6568C31.0303 85.7895 35.4212 87.9153 38.2115 91.3458C39.1514 90.7301 45.9507 84.8806 45.9507 84.8806C45.9507 84.8806 43.5129 81.9485 37.815 81.2887ZM23.4527 79.5588C29.5324 78.3273 34.496 73.9879 36.6842 68.2703C36.6842 68.2703 36.6548 68.2703 36.6401 68.2703C34.2611 72.8444 29.4883 75.9671 23.9813 75.9671C16.1099 75.9671 9.72177 69.5898 9.72177 61.7318C9.72177 53.8738 16.1099 47.4965 23.9813 47.4965C29.4883 47.4965 34.2611 50.6192 36.6401 55.1933C36.6548 55.1933 36.6695 55.2079 36.6842 55.1933C34.496 49.4757 29.5324 45.1509 23.4527 43.9048C23.6582 43.9048 23.8491 43.9048 24.0547 43.9048C33.8206 43.9048 41.736 51.88 41.736 61.7318C41.736 71.5836 33.8206 79.5588 24.0547 79.5588C23.8491 79.5588 23.6582 79.5588 23.4527 79.5588Z" fill="#6D2463"/>
<path d="M14.5594 18V4.90909H19.2256C20.2398 4.90909 21.0814 5.08381 21.7505 5.43324C22.4238 5.78267 22.9266 6.26633 23.259 6.88423C23.5914 7.49787 23.7576 8.20739 23.7576 9.01278C23.7576 9.81392 23.5893 10.5192 23.2526 11.1286C22.9202 11.7337 22.4174 12.2045 21.7441 12.5412C21.0751 12.8778 20.2334 13.0462 19.2192 13.0462H15.6844V11.3459H19.0403C19.6795 11.3459 20.1993 11.2543 20.5999 11.071C21.0047 10.8878 21.3009 10.6214 21.4884 10.272C21.6759 9.92258 21.7697 9.50284 21.7697 9.01278C21.7697 8.51847 21.6738 8.0902 21.482 7.72798C21.2945 7.36577 20.9983 7.08878 20.5935 6.89702C20.1929 6.70099 19.6667 6.60298 19.0147 6.60298H16.5346V18H14.5594ZM21.0218 12.0938L24.2562 18H22.0062L18.8357 12.0938H21.0218ZM28.8648 18.2173C28.2427 18.2173 27.6802 18.1023 27.1773 17.8722C26.6745 17.6378 26.276 17.299 25.982 16.8558C25.6922 16.4126 25.5474 15.8693 25.5474 15.2259C25.5474 14.6719 25.6539 14.2159 25.867 13.858C26.08 13.5 26.3677 13.2166 26.7299 13.0078C27.0921 12.799 27.4969 12.6413 27.9444 12.5348C28.3918 12.4283 28.8478 12.3473 29.3123 12.2919C29.9003 12.2237 30.3776 12.1683 30.7441 12.1257C31.1106 12.0788 31.3769 12.0043 31.5431 11.902C31.7093 11.7997 31.7924 11.6335 31.7924 11.4034V11.3587C31.7924 10.8004 31.6347 10.3679 31.3194 10.0611C31.0083 9.75426 30.5438 9.60085 29.9259 9.60085C29.2824 9.60085 28.7753 9.74361 28.4046 10.0291C28.0381 10.3104 27.7846 10.6236 27.6439 10.9688L25.8478 10.5597C26.0608 9.96307 26.3719 9.48153 26.781 9.11506C27.1944 8.74432 27.6695 8.47585 28.2064 8.30966C28.7434 8.1392 29.308 8.05398 29.9003 8.05398C30.2924 8.05398 30.7079 8.10085 31.1468 8.1946C31.59 8.28409 32.0033 8.45028 32.3868 8.69318C32.7746 8.93608 33.0921 9.28338 33.3393 9.73509C33.5864 10.1825 33.71 10.7642 33.71 11.4801V18H31.8435V16.6577H31.7668C31.6432 16.9048 31.4579 17.1477 31.2107 17.3864C30.9635 17.625 30.6461 17.8232 30.2583 17.9808C29.8705 18.1385 29.406 18.2173 28.8648 18.2173ZM29.2803 16.6832C29.8087 16.6832 30.2604 16.5788 30.6354 16.37C31.0147 16.1612 31.3023 15.8885 31.4983 15.5518C31.6986 15.2109 31.7988 14.8466 31.7988 14.4588V13.1932C31.7306 13.2614 31.5985 13.3253 31.4025 13.3849C31.2107 13.4403 30.9912 13.4893 30.7441 13.532C30.4969 13.5703 30.2562 13.6065 30.0218 13.6406C29.7874 13.6705 29.5914 13.696 29.4337 13.7173C29.063 13.7642 28.7242 13.843 28.4174 13.9538C28.1148 14.0646 27.8719 14.2244 27.6887 14.4332C27.5097 14.6378 27.4202 14.9105 27.4202 15.2514C27.4202 15.7244 27.5949 16.0824 27.9444 16.3253C28.2938 16.5639 28.7391 16.6832 29.2803 16.6832ZM40.8387 8.18182V9.71591H35.4758V8.18182H40.8387ZM36.914 5.82955H38.8252V15.1172C38.8252 15.4879 38.8806 15.767 38.9914 15.9545C39.1022 16.1378 39.245 16.2635 39.4197 16.3317C39.5987 16.3956 39.7926 16.4276 40.0014 16.4276C40.1548 16.4276 40.289 16.4169 40.4041 16.3956C40.5191 16.3743 40.6086 16.3572 40.6725 16.3445L41.0177 17.9233C40.9069 17.9659 40.7492 18.0085 40.5447 18.0511C40.3401 18.098 40.0845 18.1236 39.7776 18.1278C39.2748 18.1364 38.8061 18.0469 38.3714 17.8594C37.9367 17.6719 37.5852 17.3821 37.3167 16.9901C37.0482 16.598 36.914 16.1058 36.914 15.5135V5.82955ZM47.079 18.1982C46.1116 18.1982 45.2785 17.9915 44.5797 17.5781C43.8851 17.1605 43.3481 16.5746 42.9689 15.8203C42.5939 15.0618 42.4064 14.1733 42.4064 13.1548C42.4064 12.1491 42.5939 11.2628 42.9689 10.4957C43.3481 9.72869 43.8765 9.12997 44.5541 8.69957C45.2359 8.26918 46.0328 8.05398 46.9447 8.05398C47.4987 8.05398 48.0356 8.1456 48.5555 8.32884C49.0754 8.51207 49.542 8.79972 49.9554 9.19176C50.3687 9.58381 50.6947 10.093 50.9334 10.7195C51.172 11.3416 51.2913 12.098 51.2913 12.9886V13.6662H43.4866V12.2344H49.4184C49.4184 11.7315 49.3162 11.2862 49.1116 10.8984C48.9071 10.5064 48.6194 10.1974 48.2487 9.97159C47.8822 9.74574 47.4518 9.63281 46.9575 9.63281C46.4206 9.63281 45.9518 9.76491 45.5513 10.0291C45.155 10.2891 44.8481 10.63 44.6308 11.0518C44.4177 11.4695 44.3112 11.9233 44.3112 12.4134V13.532C44.3112 14.1882 44.4263 14.7464 44.6564 15.2067C44.8907 15.6669 45.2167 16.0185 45.6344 16.2614C46.052 16.5 46.5399 16.6193 47.0981 16.6193C47.4603 16.6193 47.7906 16.5682 48.0889 16.4659C48.3872 16.3594 48.645 16.2017 48.8623 15.9929C49.0797 15.7841 49.2459 15.5263 49.3609 15.2195L51.1699 15.5455C51.025 16.0781 50.765 16.5447 50.39 16.9453C50.0193 17.3416 49.5527 17.6506 48.9902 17.8722C48.4319 18.0895 47.7949 18.1982 47.079 18.1982ZM57.0873 18.1918C56.2947 18.1918 55.5873 17.9893 54.9651 17.5845C54.3472 17.1754 53.8615 16.5937 53.5078 15.8395C53.1583 15.081 52.9836 14.1712 52.9836 13.1101C52.9836 12.049 53.1605 11.1413 53.5141 10.3871C53.8721 9.63281 54.3622 9.0554 54.9843 8.65483C55.6065 8.25426 56.3117 8.05398 57.1001 8.05398C57.7095 8.05398 58.1995 8.15625 58.5703 8.3608C58.9453 8.56108 59.235 8.79545 59.4396 9.06392C59.6484 9.33239 59.8103 9.56889 59.9254 9.77344H60.0404V4.90909H61.9516V18H60.0852V16.4723H59.9254C59.8103 16.6811 59.6441 16.9197 59.4268 17.1882C59.2137 17.4567 58.9197 17.6911 58.5447 17.8913C58.1697 18.0916 57.6839 18.1918 57.0873 18.1918ZM57.5092 16.5618C58.0589 16.5618 58.5234 16.4169 58.9026 16.1271C59.2862 15.8331 59.5759 15.4261 59.772 14.9062C59.9722 14.3864 60.0724 13.7812 60.0724 13.0909C60.0724 12.4091 59.9744 11.8125 59.7784 11.3011C59.5823 10.7898 59.2947 10.3913 58.9154 10.1058C58.5362 9.82031 58.0674 9.67756 57.5092 9.67756C56.9339 9.67756 56.4545 9.8267 56.071 10.125C55.6874 10.4233 55.3977 10.8303 55.2016 11.3459C55.0099 11.8615 54.914 12.4432 54.914 13.0909C54.914 13.7472 55.012 14.3374 55.208 14.8615C55.4041 15.3857 55.6938 15.8011 56.0774 16.108C56.4651 16.4105 56.9424 16.5618 57.5092 16.5618ZM125.864 18V4.90909H127.775V9.77344H127.89C128.001 9.56889 128.161 9.33239 128.37 9.06392C128.579 8.79545 128.868 8.56108 129.239 8.3608C129.61 8.15625 130.1 8.05398 130.709 8.05398C131.502 8.05398 132.209 8.25426 132.831 8.65483C133.454 9.0554 133.942 9.63281 134.295 10.3871C134.653 11.1413 134.832 12.049 134.832 13.1101C134.832 14.1712 134.655 15.081 134.302 15.8395C133.948 16.5937 133.462 17.1754 132.844 17.5845C132.226 17.9893 131.521 18.1918 130.728 18.1918C130.132 18.1918 129.644 18.0916 129.265 17.8913C128.89 17.6911 128.596 17.4567 128.383 17.1882C128.17 16.9197 128.005 16.6811 127.89 16.4723H127.731V18H125.864ZM127.737 13.0909C127.737 13.7812 127.837 14.3864 128.037 14.9062C128.238 15.4261 128.527 15.8331 128.907 16.1271C129.286 16.4169 129.75 16.5618 130.3 16.5618C130.871 16.5618 131.348 16.4105 131.732 16.108C132.116 15.8011 132.405 15.3857 132.601 14.8615C132.802 14.3374 132.902 13.7472 132.902 13.0909C132.902 12.4432 132.804 11.8615 132.608 11.3459C132.416 10.8303 132.126 10.4233 131.738 10.125C131.355 9.8267 130.875 9.67756 130.3 9.67756C129.746 9.67756 129.277 9.82031 128.894 10.1058C128.515 10.3913 128.227 10.7898 128.031 11.3011C127.835 11.8125 127.737 12.4091 127.737 13.0909ZM137.852 21.6818C137.567 21.6818 137.307 21.6584 137.073 21.6115C136.838 21.5689 136.663 21.522 136.548 21.4709L137.009 19.9048C137.358 19.9986 137.669 20.0391 137.942 20.0263C138.215 20.0135 138.455 19.9112 138.664 19.7195C138.877 19.5277 139.065 19.2145 139.227 18.7798L139.463 18.1278L135.871 8.18182H137.916L140.403 15.8011H140.505L142.992 8.18182H145.043L140.997 19.3104C140.81 19.8217 140.571 20.2543 140.281 20.608C139.992 20.9659 139.646 21.2344 139.246 21.4134C138.845 21.5923 138.381 21.6818 137.852 21.6818Z" fill="#333333"/>
<path d="M69.066 9V7.77273C69.066 7.41051 69.1342 7.02912 69.2705 6.62855C69.4069 6.22798 69.5965 5.84446 69.8394 5.47798C70.0823 5.11151 70.3678 4.79829 70.696 4.53835L71.642 5.21591C71.382 5.59517 71.1605 5.99148 70.9772 6.40483C70.794 6.81818 70.7024 7.26776 70.7024 7.75355V9H69.066ZM77.4092 21.8864C76.6294 21.8864 75.9582 21.7841 75.3957 21.5795C74.8375 21.375 74.3815 21.1044 74.0278 20.7678C73.6741 20.4311 73.4099 20.0625 73.2352 19.6619L74.878 18.9844C74.993 19.1719 75.1464 19.37 75.3382 19.5788C75.5342 19.7919 75.7984 19.973 76.1308 20.1222C76.4675 20.2713 76.9 20.3459 77.4284 20.3459C78.1528 20.3459 78.7515 20.169 79.2246 19.8153C79.6976 19.4659 79.9341 18.9077 79.9341 18.1406V16.2102H79.8126C79.6976 16.419 79.5314 16.6513 79.314 16.907C79.101 17.1626 78.8069 17.3842 78.4319 17.5717C78.0569 17.7592 77.569 17.853 76.9682 17.853C76.1926 17.853 75.4937 17.6719 74.8716 17.3097C74.2537 16.9432 73.7636 16.4041 73.4014 15.6925C73.0434 14.9766 72.8645 14.0966 72.8645 13.0526C72.8645 12.0085 73.0413 11.1136 73.395 10.3679C73.753 9.62216 74.243 9.05114 74.8652 8.65483C75.4873 8.25426 76.1926 8.05398 76.9809 8.05398C77.5903 8.05398 78.0825 8.15625 78.4575 8.3608C78.8325 8.56108 79.1244 8.79545 79.3332 9.06392C79.5463 9.33239 79.7103 9.56889 79.8254 9.77344H79.966V8.18182H81.8389V18.2173C81.8389 19.0611 81.6429 19.7536 81.2508 20.2947C80.8588 20.8359 80.3282 21.2365 79.6592 21.4964C78.9944 21.7564 78.2444 21.8864 77.4092 21.8864ZM77.39 16.2678C77.9398 16.2678 78.4042 16.1399 78.7835 15.8842C79.167 15.6243 79.4568 15.2536 79.6528 14.772C79.8531 14.2862 79.9532 13.7045 79.9532 13.027C79.9532 12.3665 79.8552 11.7848 79.6592 11.282C79.4632 10.7791 79.1755 10.3871 78.7963 10.1058C78.417 9.82031 77.9483 9.67756 77.39 9.67756C76.8148 9.67756 76.3353 9.8267 75.9518 10.125C75.5683 10.419 75.2785 10.8196 75.0825 11.3267C74.8907 11.8338 74.7949 12.4006 74.7949 13.027C74.7949 13.6705 74.8929 14.2351 75.0889 14.7209C75.2849 15.2067 75.5747 15.5859 75.9582 15.8587C76.346 16.1314 76.8233 16.2678 77.39 16.2678ZM88.5378 18.1982C87.6173 18.1982 86.814 17.9872 86.128 17.5653C85.4419 17.1435 84.9092 16.5533 84.53 15.7947C84.1507 15.0362 83.9611 14.1499 83.9611 13.1357C83.9611 12.1172 84.1507 11.2266 84.53 10.4638C84.9092 9.70099 85.4419 9.10866 86.128 8.68679C86.814 8.26491 87.6173 8.05398 88.5378 8.05398C89.4582 8.05398 90.2615 8.26491 90.9476 8.68679C91.6336 9.10866 92.1663 9.70099 92.5456 10.4638C92.9248 11.2266 93.1145 12.1172 93.1145 13.1357C93.1145 14.1499 92.9248 15.0362 92.5456 15.7947C92.1663 16.5533 91.6336 17.1435 90.9476 17.5653C90.2615 17.9872 89.4582 18.1982 88.5378 18.1982ZM88.5442 16.5938C89.1407 16.5938 89.6351 16.4361 90.0271 16.1207C90.4192 15.8054 90.7089 15.3857 90.8964 14.8615C91.0882 14.3374 91.1841 13.7599 91.1841 13.1293C91.1841 12.5028 91.0882 11.9276 90.8964 11.4034C90.7089 10.875 90.4192 10.451 90.0271 10.1314C89.6351 9.81179 89.1407 9.65199 88.5442 9.65199C87.9433 9.65199 87.4447 9.81179 87.0484 10.1314C86.6564 10.451 86.3645 10.875 86.1727 11.4034C85.9852 11.9276 85.8915 12.5028 85.8915 13.1293C85.8915 13.7599 85.9852 14.3374 86.1727 14.8615C86.3645 15.3857 86.6564 15.8054 87.0484 16.1207C87.4447 16.4361 87.9433 16.5938 88.5442 16.5938ZM99.3835 18.1982C98.463 18.1982 97.6597 17.9872 96.9737 17.5653C96.2876 17.1435 95.7549 16.5533 95.3757 15.7947C94.9964 15.0362 94.8068 14.1499 94.8068 13.1357C94.8068 12.1172 94.9964 11.2266 95.3757 10.4638C95.7549 9.70099 96.2876 9.10866 96.9737 8.68679C97.6597 8.26491 98.463 8.05398 99.3835 8.05398C100.304 8.05398 101.107 8.26491 101.793 8.68679C102.479 9.10866 103.012 9.70099 103.391 10.4638C103.771 11.2266 103.96 12.1172 103.96 13.1357C103.96 14.1499 103.771 15.0362 103.391 15.7947C103.012 16.5533 102.479 17.1435 101.793 17.5653C101.107 17.9872 100.304 18.1982 99.3835 18.1982ZM99.3899 16.5938C99.9865 16.5938 100.481 16.4361 100.873 16.1207C101.265 15.8054 101.555 15.3857 101.742 14.8615C101.934 14.3374 102.03 13.7599 102.03 13.1293C102.03 12.5028 101.934 11.9276 101.742 11.4034C101.555 10.875 101.265 10.451 100.873 10.1314C100.481 9.81179 99.9865 9.65199 99.3899 9.65199C98.789 9.65199 98.2904 9.81179 97.8941 10.1314C97.5021 10.451 97.2102 10.875 97.0184 11.4034C96.8309 11.9276 96.7372 12.5028 96.7372 13.1293C96.7372 13.7599 96.8309 14.3374 97.0184 14.8615C97.2102 15.3857 97.5021 15.8054 97.8941 16.1207C98.2904 16.4361 98.789 16.5938 99.3899 16.5938ZM109.769 18.1918C108.976 18.1918 108.269 17.9893 107.647 17.5845C107.029 17.1754 106.543 16.5937 106.189 15.8395C105.84 15.081 105.665 14.1712 105.665 13.1101C105.665 12.049 105.842 11.1413 106.196 10.3871C106.554 9.63281 107.044 9.0554 107.666 8.65483C108.288 8.25426 108.993 8.05398 109.782 8.05398C110.391 8.05398 110.881 8.15625 111.252 8.3608C111.627 8.56108 111.917 8.79545 112.121 9.06392C112.33 9.33239 112.492 9.56889 112.607 9.77344H112.722V4.90909H114.633V18H112.767V16.4723H112.607C112.492 16.6811 112.326 16.9197 112.108 17.1882C111.895 17.4567 111.601 17.6911 111.226 17.8913C110.851 18.0916 110.366 18.1918 109.769 18.1918ZM110.191 16.5618C110.741 16.5618 111.205 16.4169 111.584 16.1271C111.968 15.8331 112.258 15.4261 112.454 14.9062C112.654 14.3864 112.754 13.7812 112.754 13.0909C112.754 12.4091 112.656 11.8125 112.46 11.3011C112.264 10.7898 111.976 10.3913 111.597 10.1058C111.218 9.82031 110.749 9.67756 110.191 9.67756C109.616 9.67756 109.136 9.8267 108.753 10.125C108.369 10.4233 108.079 10.8303 107.883 11.3459C107.692 11.8615 107.596 12.4432 107.596 13.0909C107.596 13.7472 107.694 14.3374 107.89 14.8615C108.086 15.3857 108.375 15.8011 108.759 16.108C109.147 16.4105 109.624 16.5618 110.191 16.5618ZM119.004 4.90909V6.13636C119.004 6.49858 118.936 6.87997 118.799 7.28054C118.667 7.67685 118.48 8.05824 118.237 8.42472C117.994 8.79119 117.708 9.10653 117.38 9.37074L116.434 8.69318C116.686 8.3267 116.903 7.93679 117.086 7.52344C117.274 7.11008 117.367 6.65412 117.367 6.15554V4.90909H119.004Z" fill="#1B273F"/>
</svg>
