<svg width="106" height="27" viewBox="0 0 106 27" fill="none" xmlns="http://www.w3.org/2000/svg">
<g clip-path="url(#clip0_1336_2787)">
<path d="M27.826 9.3125H38.5461V11.3013H34.3309V22.4815H32.0131V11.3013H27.8167V9.3125H27.826ZM38.0881 12.9463H40.0695V14.7864H40.1069C40.1723 14.5262 40.2938 14.2753 40.4714 14.0336C40.6489 13.792 40.8639 13.5597 41.1162 13.3645C41.3686 13.1601 41.649 13.0021 41.9574 12.8719C42.2658 12.7511 42.5836 12.6861 42.9014 12.6861C43.1444 12.6861 43.3219 12.6954 43.4154 12.7047C43.5088 12.714 43.6023 12.7325 43.7051 12.7418V14.7678C43.5556 14.74 43.406 14.7214 43.2472 14.7028C43.0883 14.6842 42.9387 14.6749 42.7892 14.6749C42.434 14.6749 42.0976 14.7493 41.7798 14.8887C41.462 15.0281 41.191 15.2418 40.9574 15.5113C40.7237 15.7901 40.5368 16.1247 40.3966 16.5336C40.2564 16.9425 40.191 17.4072 40.191 17.937V22.4722H38.0787V12.9463L38.0881 12.9463ZM53.4158 22.4815H51.3409V21.1525H51.3035C51.0418 21.6358 50.6586 22.0168 50.1446 22.305C49.6306 22.5931 49.1072 22.7418 48.5745 22.7418C47.3127 22.7418 46.3968 22.4351 45.836 21.8124C45.2753 21.1897 44.9949 20.2511 44.9949 18.9964V12.9463H47.1071V18.792C47.1071 19.6284 47.266 20.2232 47.5931 20.567C47.9109 20.9109 48.3688 21.0875 48.9483 21.0875C49.3969 21.0875 49.7614 21.0224 50.0605 20.883C50.3596 20.7436 50.6026 20.567 50.7801 20.3347C50.9671 20.1117 51.0979 19.8329 51.182 19.5169C51.2661 19.2009 51.3035 18.857 51.3035 18.4853V12.9556H53.4158V22.4815ZM57.014 19.4239C57.0794 20.0373 57.3131 20.4648 57.715 20.7157C58.1262 20.9574 58.6122 21.0875 59.1823 21.0875C59.3786 21.0875 59.6029 21.0689 59.8553 21.041C60.1076 21.0131 60.3506 20.9481 60.5656 20.8644C60.7899 20.7808 60.9674 20.6507 61.117 20.4834C61.2572 20.3161 61.3226 20.1024 61.3132 19.8329C61.3039 19.5633 61.2011 19.3403 61.0142 19.173C60.8273 18.9964 60.5936 18.8663 60.3039 18.7548C60.0141 18.6526 59.687 18.5596 59.3132 18.4853C58.9393 18.4109 58.5655 18.3273 58.1823 18.2436C57.7898 18.16 57.4066 18.0485 57.0421 17.9277C56.6776 17.8068 56.3504 17.6396 56.0607 17.4258C55.771 17.2214 55.5373 16.9518 55.3691 16.6266C55.1915 16.3013 55.1074 15.9017 55.1074 15.4184C55.1074 14.898 55.2383 14.4704 55.4906 14.1173C55.7429 13.7641 56.0701 13.4853 56.4533 13.2716C56.8458 13.0578 57.2757 12.9091 57.7524 12.8162C58.229 12.7325 58.687 12.6861 59.1169 12.6861C59.6122 12.6861 60.0889 12.7418 60.5375 12.8441C60.9861 12.9463 61.3974 13.1136 61.7619 13.3552C62.1264 13.5876 62.4254 13.8942 62.6684 14.266C62.9114 14.6377 63.061 15.0931 63.1264 15.6229H60.9207C60.8179 15.121 60.5936 14.7771 60.2291 14.6099C59.8646 14.4333 59.444 14.3496 58.9767 14.3496C58.8272 14.3496 58.6496 14.3589 58.444 14.3868C58.2384 14.4147 58.0514 14.4612 57.8645 14.5262C57.6869 14.5913 57.5374 14.6935 57.4066 14.8236C57.2851 14.9537 57.2196 15.121 57.2196 15.3348C57.2196 15.595 57.3131 15.7994 57.4907 15.9574C57.6682 16.1154 57.9019 16.2455 58.1916 16.357C58.4814 16.4593 58.8085 16.5522 59.1823 16.6266C59.5562 16.7009 59.9394 16.7846 60.3319 16.8682C60.7151 16.9518 61.0889 17.0634 61.4628 17.1842C61.8366 17.305 62.1637 17.4723 62.4535 17.686C62.7432 17.8998 62.9769 18.16 63.1544 18.476C63.332 18.792 63.4255 19.1916 63.4255 19.6563C63.4255 20.2232 63.2946 20.6972 63.0329 21.0968C62.7712 21.4871 62.4348 21.8124 62.0236 22.054C61.6123 22.2957 61.145 22.4815 60.6403 22.5931C60.1356 22.7046 59.6309 22.7603 59.1356 22.7603C58.5281 22.7603 57.9673 22.6953 57.4533 22.5559C56.9393 22.4165 56.4906 22.212 56.1168 21.9425C55.743 21.6637 55.4439 21.3198 55.2289 20.9109C55.0139 20.502 54.9018 20.0094 54.8831 19.4425H57.014V19.4239ZM63.9862 12.9463H65.5844V10.0839H67.6967V12.9463H69.6033V14.5169H67.6967V19.6098C67.6967 19.8329 67.706 20.0187 67.7247 20.186C67.7434 20.344 67.7901 20.4834 67.8555 20.5949C67.921 20.7065 68.0238 20.7901 68.164 20.8459C68.3042 20.9016 68.4817 20.9295 68.7247 20.9295C68.8743 20.9295 69.0238 20.9295 69.1734 20.9202C69.3229 20.9109 69.4724 20.8923 69.622 20.8552V22.4815C69.3883 22.5094 69.1547 22.528 68.9397 22.5559C68.7154 22.5838 68.4911 22.5931 68.2574 22.5931C67.6967 22.5931 67.248 22.5373 66.9116 22.4351C66.5751 22.3328 66.3041 22.1748 66.1172 21.9704C65.9209 21.7659 65.7994 21.515 65.7246 21.2083C65.6592 20.9016 65.6125 20.5485 65.6031 20.1581V14.5355H64.0049V12.9463H63.9862ZM71.0987 12.9463H73.0987V14.2381H73.1361C73.4352 13.6805 73.8464 13.2902 74.3792 13.0485C74.9119 12.8069 75.482 12.6861 76.1082 12.6861C76.8652 12.6861 77.5195 12.8162 78.0802 13.0857C78.641 13.3459 79.1083 13.7084 79.4821 14.1731C79.856 14.6377 80.127 15.1768 80.314 15.7901C80.5009 16.4035 80.5943 17.0634 80.5943 17.7604C80.5943 18.4016 80.5102 19.0243 80.342 19.6191C80.1738 20.2232 79.9214 20.7529 79.5849 21.2176C79.2485 21.6823 78.8186 22.0447 78.2952 22.3235C77.7718 22.6023 77.1643 22.7418 76.454 22.7418C76.1456 22.7418 75.8371 22.7139 75.5287 22.6581C75.2203 22.6023 74.9212 22.5094 74.6408 22.3886C74.3605 22.2678 74.0894 22.1098 73.8558 21.9146C73.6128 21.7195 73.4165 21.4964 73.2483 21.2455H73.2109V26.0038H71.0987V12.9463ZM78.4821 17.7232C78.4821 17.2957 78.426 16.8775 78.3139 16.4686C78.2017 16.0597 78.0335 15.7065 77.8092 15.3905C77.5849 15.0745 77.3045 14.8236 76.9774 14.6377C76.6409 14.4519 76.2577 14.3496 75.8278 14.3496C74.9399 14.3496 74.267 14.6563 73.8184 15.2697C73.3698 15.8831 73.1455 16.7009 73.1455 17.7232C73.1455 18.2065 73.2015 18.6526 73.323 19.0615C73.4445 19.4704 73.6128 19.8236 73.8558 20.121C74.0894 20.4184 74.3698 20.6507 74.6969 20.818C75.024 20.9946 75.4072 21.0782 75.8372 21.0782C76.3232 21.0782 76.725 20.976 77.0615 20.7808C77.398 20.5856 77.669 20.3254 77.884 20.0187C78.0989 19.7027 78.2578 19.3496 78.3513 18.95C78.4354 18.5503 78.4821 18.1414 78.4821 17.7232ZM82.2112 9.3125H84.3234V11.3013H82.2112V9.3125ZM82.2112 12.9463H84.3234V22.4815H82.2112V12.9463ZM86.2114 9.3125H88.3236V22.4815H86.2114V9.3125ZM94.8005 22.7418C94.0341 22.7418 93.3518 22.6116 92.7537 22.3607C92.1555 22.1098 91.6508 21.7566 91.2302 21.3198C90.819 20.8737 90.5012 20.344 90.2863 19.7306C90.0713 19.1172 89.9592 18.4388 89.9592 17.7046C89.9592 16.9797 90.0713 16.3106 90.2863 15.6972C90.5012 15.0838 90.819 14.5541 91.2302 14.108C91.6415 13.6619 92.1555 13.318 92.7537 13.0671C93.3518 12.8162 94.0341 12.6861 94.8005 12.6861C95.5668 12.6861 96.2491 12.8162 96.8473 13.0671C97.4454 13.318 97.9501 13.6712 98.3707 14.108C98.7819 14.5541 99.0997 15.0838 99.3147 15.6972C99.5296 16.3106 99.6418 16.9797 99.6418 17.7046C99.6418 18.4388 99.5296 19.1172 99.3147 19.7306C99.0997 20.344 98.7819 20.8737 98.3707 21.3198C97.9595 21.7659 97.4454 22.1098 96.8473 22.3607C96.2491 22.6116 95.5668 22.7418 94.8005 22.7418ZM94.8005 21.0782C95.2678 21.0782 95.679 20.976 96.0248 20.7808C96.3706 20.5856 96.651 20.3254 96.8753 20.0094C97.0996 19.6935 97.2585 19.331 97.3707 18.9314C97.4735 18.5318 97.5295 18.1228 97.5295 17.7046C97.5295 17.2957 97.4735 16.8961 97.3707 16.4872C97.2679 16.0782 97.0996 15.7251 96.8753 15.4091C96.651 15.0931 96.3706 14.8422 96.0248 14.647C95.679 14.4519 95.2678 14.3496 94.8005 14.3496C94.3332 14.3496 93.9219 14.4519 93.5761 14.647C93.2303 14.8422 92.9499 15.1024 92.7256 15.4091C92.5013 15.7251 92.3424 16.0782 92.2303 16.4872C92.1275 16.8961 92.0714 17.2957 92.0714 17.7046C92.0714 18.1228 92.1275 18.5318 92.2303 18.9314C92.3331 19.331 92.5013 19.6935 92.7256 20.0094C92.9499 20.3254 93.2303 20.5856 93.5761 20.7808C93.9219 20.9853 94.3332 21.0782 94.8005 21.0782ZM100.259 12.9463H101.857V10.0839H103.969V12.9463H105.876V14.5169H103.969V19.6098C103.969 19.8329 103.978 20.0187 103.997 20.186C104.016 20.344 104.062 20.4834 104.128 20.5949C104.193 20.7065 104.296 20.7901 104.436 20.8459C104.577 20.9016 104.754 20.9295 104.997 20.9295C105.147 20.9295 105.296 20.9295 105.446 20.9202C105.595 20.9109 105.745 20.8923 105.894 20.8552V22.4815C105.661 22.5094 105.427 22.528 105.212 22.5559C104.988 22.5838 104.763 22.5931 104.53 22.5931C103.969 22.5931 103.52 22.5373 103.184 22.4351C102.847 22.3328 102.576 22.1748 102.39 21.9704C102.193 21.7659 102.072 21.515 101.997 21.2083C101.932 20.9016 101.885 20.5485 101.876 20.1581V14.5355H100.277V12.9463L100.259 12.9463Z" fill="white"/>
<path d="M25.3586 9.31242H15.676L12.6853 0.148926L9.68517 9.31242L0.00256348 9.30312L7.84398 14.9722L4.84386 24.1264L12.6853 18.4666L20.5173 24.1264L17.5266 14.9722L25.3586 9.31242Z" fill="#00B67A"/>
<path d="M18.1995 17.0446L17.5266 14.9722L12.6853 18.4666L18.1995 17.0446Z" fill="#005128"/>
</g>
<defs>
<clipPath id="clip0_1336_2787">
<rect width="106" height="26.0781" fill="white"/>
</clipPath>
</defs>
</svg>
