<svg width="72" height="73" viewBox="0 0 72 73" fill="none" xmlns="http://www.w3.org/2000/svg">
<path d="M66.6733 5.07104H53.3765C52.1945 5.07104 51.2361 6.04274 51.2361 7.24122V10.7927L47.0453 7.22796C45.8909 6.24587 44.4251 5.70511 42.9181 5.70511H22.8585C21.3514 5.70511 19.8855 6.246 18.731 7.22809L5.58378 18.4123C2.83179 20.7535 2.38266 24.9453 4.58258 27.7566C6.89978 30.7177 11.1514 31.1478 13.9979 28.7261L24.1387 20.099H28.8953C26.5217 21.0839 24.8066 23.403 24.7337 26.1004C24.6316 29.8788 27.6161 32.9791 31.3318 32.9791H51.236V35.0202C51.236 36.2187 52.1943 37.1904 53.3764 37.1904H66.6732C67.8553 37.1904 68.8137 36.2187 68.8137 35.0202V7.24109C68.8138 6.04248 67.8554 5.07104 66.6733 5.07104ZM51.2365 28.6387H31.3321V28.6389C30.0331 28.6389 28.9771 27.557 29.0131 26.2193C29.0472 24.9596 30.129 23.9349 31.4247 23.9349C32.3556 23.9349 39.002 23.9349 39.8446 23.9349C41.0267 23.9349 41.9851 22.9632 41.9851 21.7647C41.9851 20.5662 41.0267 19.5945 39.8446 19.5945H36.0518L32.7361 16.7741C31.9664 16.1193 30.9892 15.7587 29.9845 15.7587H24.1387C23.1341 15.7587 22.1568 16.1192 21.387 16.7742L11.2462 25.4012C10.2534 26.2456 8.75811 26.1092 7.9361 25.0589C7.16357 24.0717 7.34276 22.5816 8.33538 21.7373L21.4827 10.5528C21.8675 10.2255 22.3561 10.0452 22.8586 10.0452H42.9183C43.4207 10.0452 43.9092 10.2255 44.2941 10.5528L51.2363 16.4581V28.6387H51.2365ZM64.5329 32.8502H55.517C55.517 31.9402 55.517 10.5309 55.517 9.41114H64.5329V32.8502Z" fill="white"/>
<path d="M42.7277 38.8074C39.652 38.8074 37.4096 40.1806 35.9936 41.4509C34.5777 40.1806 32.3353 38.8074 29.2596 38.8074C24.0613 38.8074 20.385 43.5858 20.385 49.238C20.385 57.4279 27.7658 63.745 34.9816 67.6711C35.6137 68.015 36.3737 68.015 37.0059 67.6711C49.706 60.7612 51.6023 53.1562 51.6023 49.238C51.6023 43.5945 47.9328 38.8074 42.7277 38.8074ZM35.9938 63.2802C30.7959 60.2877 24.666 55.2618 24.666 49.2378C24.666 46.2441 26.3844 43.1475 29.2597 43.1475C32.3722 43.1475 34.0475 45.6419 34.1763 45.8412C35.0068 47.25 36.9807 47.2497 37.8111 45.8412C37.9399 45.6419 39.6152 43.1475 42.7277 43.1475C45.603 43.1475 47.3214 46.244 47.3214 49.2378C47.3214 55.2634 41.1915 60.2877 35.9938 63.2802Z" fill="#00E54A"/>
</svg>
