<svg width="84" height="84" viewBox="0 0 84 84" fill="none" xmlns="http://www.w3.org/2000/svg">
<g clip-path="url(#clip0_1651_227)">
<path d="M28.0001 37.6601C27.3312 37.6601 26.6545 37.6601 25.9701 37.6601C23.1998 37.5599 20.4386 38.0302 17.8577 39.0417C15.2768 40.0532 12.9313 41.5843 10.9667 43.5401L10.4067 44.1934V63.5134H19.9267V52.5467L21.2101 51.1001L21.7934 50.4234C24.8312 47.3026 28.6132 45.0061 32.7834 43.7501C30.6955 42.1614 29.0489 40.0649 28.0001 37.6601Z" fill="white"/>
<path d="M73.1267 43.47C71.1621 41.5142 68.8166 39.9831 66.2357 38.9716C63.6548 37.9601 60.8936 37.4899 58.1233 37.59C57.2737 37.5924 56.4248 37.6391 55.58 37.73C54.5115 39.9861 52.9099 41.9481 50.9133 43.4466C55.3653 44.6783 59.3982 47.0981 62.58 50.4466L63.1633 51.1L64.4233 52.5466V63.5366H73.6167V44.1233L73.1267 43.47Z" fill="white"/>
<path d="M25.9 33.11C26.1566 33.11 26.3666 33.11 26.6233 33.11C26.2872 30.2243 26.7935 27.3029 28.0812 24.6986C29.3689 22.0943 31.3828 19.9183 33.8799 18.4334C32.9748 17.0505 31.726 15.9264 30.2558 15.1712C28.7857 14.416 27.1446 14.0556 25.4933 14.1252C23.842 14.1948 22.2371 14.692 20.8357 15.5682C19.4343 16.4444 18.2845 17.6696 17.4989 19.1237C16.7133 20.5778 16.3188 22.211 16.354 23.8634C16.3892 25.5158 16.8529 27.1307 17.6998 28.55C18.5467 29.9693 19.7476 31.1444 21.1851 31.9601C22.6225 32.7758 24.2472 33.2042 25.9 33.2034V33.11Z" fill="white"/>
<path d="M57.0033 31.36C57.0317 31.8963 57.0317 32.4337 57.0033 32.97C57.4511 33.041 57.9034 33.08 58.3567 33.0867H58.8C60.4455 32.9989 62.0403 32.4866 63.429 31.5996C64.8177 30.7126 65.9531 29.4811 66.7246 28.025C67.4961 26.5689 67.8774 24.9379 67.8315 23.2907C67.7855 21.6435 67.3138 20.0363 66.4623 18.6255C65.6109 17.2147 64.4086 16.0485 62.9725 15.2402C61.5365 14.432 59.9157 14.0094 58.2679 14.0136C56.62 14.0177 55.0014 14.4485 53.5694 15.2639C52.1375 16.0793 50.9411 17.2516 50.0967 18.6667C52.2085 20.0455 53.9451 21.9271 55.1505 24.1425C56.356 26.3579 56.9926 28.8379 57.0033 31.36Z" fill="white"/>
<path d="M41.6966 41.8134C47.4569 41.8134 52.1266 37.1437 52.1266 31.3834C52.1266 25.623 47.4569 20.9534 41.6966 20.9534C35.9363 20.9534 31.2666 25.623 31.2666 31.3834C31.2666 37.1437 35.9363 41.8134 41.6966 41.8134Z" fill="#00E54A"/>
<path d="M42.2566 47.3666C39.2094 47.2436 36.1687 47.7383 33.3177 48.821C30.4666 49.9037 27.864 51.5519 25.6666 53.6666L25.0833 54.32V69.09C25.0924 69.5711 25.1962 70.0457 25.3887 70.4866C25.5813 70.9276 25.8588 71.3263 26.2055 71.66C26.5522 71.9937 26.9612 72.2558 27.4093 72.4314C27.8573 72.607 28.3355 72.6926 28.8166 72.6833H55.6266C56.1077 72.6926 56.5859 72.607 57.0339 72.4314C57.4819 72.2558 57.891 71.9937 58.2376 71.66C58.5843 71.3263 58.8619 70.9276 59.0545 70.4866C59.247 70.0457 59.3508 69.5711 59.3599 69.09V54.3666L58.7999 53.6666C56.6167 51.5454 54.0232 49.8925 51.1785 48.8092C48.3338 47.7259 45.2978 47.235 42.2566 47.3666Z" fill="#00E54A"/>
</g>
<defs>
<clipPath id="clip0_1651_227">
<rect width="84" height="84" fill="white"/>
</clipPath>
</defs>
</svg>
