<svg width="55" height="55" viewBox="0 0 55 55" fill="none" xmlns="http://www.w3.org/2000/svg">
<g clip-path="url(#clip0_1696_142)">
<path d="M54.8949 18.9587C53.2762 3.37254 35.8841 3.61 27.4997 11.1305C19.1149 3.61 1.72278 3.37254 0.104744 18.9587C-1.97379 39.0116 27.4993 48.8591 27.4993 48.8591C27.4993 48.8591 56.9734 39.0116 54.8949 18.9587ZM38.6242 30.5955H30.5936V38.6261H24.401V30.5955H16.3735V24.4026H24.4032V16.373H30.5958V24.4026H38.6264V30.5955H38.6242Z" fill="white"/>
<path d="M24.43 24.4371V16.3505H30.6634V24.4371H38.5395L38.7501 30.6286H30.6634V38.5469H24.43V30.6286H16.4275V24.4371H24.43Z" stroke="#00E54A"/>
</g>
<defs>
<clipPath id="clip0_1696_142">
<rect width="55" height="55" fill="white"/>
</clipPath>
</defs>
</svg>
