<svg width="48" height="72" viewBox="0 0 48 72" fill="none" xmlns="http://www.w3.org/2000/svg">
<path d="M45.1651 18.687C44.4341 17.7852 43.745 16.9339 43.4152 16.1269C43.0606 15.2598 42.9486 14.1195 42.8211 12.9144C42.6189 10.9181 42.3871 8.65017 40.8783 7.12293C39.3696 5.59568 37.1453 5.35562 35.1746 5.14872C33.9862 5.02395 32.8647 4.9055 32.0093 4.54699C31.216 4.21216 30.3761 3.51092 29.4879 2.76862C27.9325 1.47039 26.1748 0 23.9459 0C21.717 0 19.9562 1.47039 18.4023 2.76862C17.5142 3.51092 16.6758 4.21216 15.881 4.54699C15.027 4.9055 13.904 5.02079 12.7172 5.14872C10.7512 5.35562 8.51755 5.58936 7.01345 7.12135C5.50934 8.65333 5.27292 10.9118 5.06916 12.9144C4.94628 14.1195 4.82962 15.2598 4.47654 16.1269C4.14679 16.9339 3.45617 17.7852 2.72512 18.687C1.44811 20.2664 0 22.0511 0 24.3159C0 26.5807 1.44811 28.3669 2.72512 29.9431C3.45617 30.845 4.14679 31.6978 4.47654 32.5033C4.82962 33.3704 4.94317 34.5107 5.06916 35.7173C5.27292 37.7136 5.50312 39.9816 7.01345 41.5088C8.52377 43.0361 10.7465 43.2745 12.7172 43.4814C13.904 43.6062 15.027 43.7247 15.881 44.0848C16.6758 44.418 17.5142 45.1192 18.4023 45.8615C19.9578 47.1598 21.717 48.6302 23.9459 48.6302C26.1748 48.6302 27.9356 47.1598 29.4879 45.8615C30.3761 45.1192 31.216 44.418 32.0093 44.0848C32.8647 43.7247 33.9862 43.6109 35.1746 43.4814C37.1406 43.2761 39.3742 43.0408 40.8783 41.5088C42.3824 39.9768 42.6189 37.7183 42.8211 35.7173C42.944 34.5107 43.0606 33.3719 43.4152 32.5033C43.745 31.6978 44.4341 30.845 45.1651 29.9431C46.4437 28.3638 47.8918 26.5791 47.8918 24.3159C47.8918 22.0526 46.4437 20.2648 45.1651 18.687ZM43.0031 28.1363C42.174 29.1598 41.317 30.218 40.8255 31.4151C40.3153 32.666 40.1722 34.0684 40.0337 35.4235C39.8626 37.0977 39.7024 38.6786 38.8952 39.4983C38.0879 40.318 36.5309 40.4807 34.8821 40.6544C33.5476 40.7949 32.1664 40.9402 30.9345 41.4583C29.7554 41.9542 28.7133 42.8244 27.7069 43.6694C26.4004 44.7607 25.1685 45.7905 23.9428 45.7905C22.7171 45.7905 21.4836 44.7607 20.1786 43.6694C19.1707 42.8276 18.1286 41.9574 16.9511 41.4583C15.7192 40.9402 14.338 40.7949 13.0019 40.6544C11.3531 40.4807 9.79612 40.318 8.98885 39.4983C8.18158 38.6786 8.02137 37.0977 7.85183 35.4235C7.71339 34.0684 7.57029 32.666 7.05856 31.4151C6.57015 30.218 5.71311 29.1598 4.88095 28.1363C3.81392 26.8113 2.806 25.5604 2.806 24.3159C2.806 23.0713 3.82014 21.8189 4.89339 20.4938C5.72244 19.4704 6.57948 18.4122 7.071 17.2151C7.58274 15.9658 7.72584 14.5633 7.86427 13.2066C8.03381 11.5325 8.19558 9.95157 9.00285 9.13188C9.81012 8.31219 11.3609 8.14951 13.005 7.96947C14.3411 7.8368 15.7161 7.6915 16.9604 7.17978C18.1379 6.68386 19.18 5.81363 20.188 4.96868C21.493 3.87892 22.7264 2.84759 23.9521 2.84759C25.1778 2.84759 26.4097 3.87892 27.7163 4.96868C28.7226 5.81048 29.7648 6.68071 30.9438 7.17978C32.1757 7.69939 33.5569 7.84469 34.8915 7.98368C36.5402 8.15741 38.0972 8.32166 38.9045 9.13977C39.7118 9.95788 39.872 11.5404 40.0431 13.2145C40.1815 14.5712 40.3246 15.9737 40.8348 17.223C41.3232 18.4201 42.1802 19.4783 43.0124 20.5017C44.0872 21.8268 45.1013 23.0792 45.1013 24.3238C45.1013 25.5683 44.0779 26.8113 43.0031 28.1363Z" fill="white"/>
<path d="M24.2708 11.2499C21.6592 11.2496 19.1062 12.0356 16.9346 13.5086C14.763 14.9816 13.0704 17.0755 12.0707 19.5253C11.0711 21.9751 10.8094 24.6709 11.3187 27.2717C11.828 29.8726 13.0855 32.2617 14.932 34.1369C16.7786 36.012 19.1313 37.2891 21.6927 37.8066C24.2541 38.324 26.9091 38.0586 29.3219 37.0439C31.7347 36.0292 33.797 34.3107 35.2479 32.1059C36.6989 29.9011 37.4733 27.3089 37.4733 24.6571C37.4733 21.1015 36.0824 17.6916 33.6065 15.1773C31.1306 12.663 27.7725 11.2503 24.2708 11.2499ZM31.3931 21.9374C26.38 24.5418 23.1633 30.0332 23.1307 30.0885C23.003 30.3095 22.8265 30.4974 22.6152 30.6374C22.4039 30.7775 22.1634 30.8658 21.9128 30.8956C21.8498 30.9031 21.7864 30.9068 21.723 30.9066C21.5026 30.9066 21.2846 30.8612 21.0819 30.7733C20.8793 30.6853 20.6963 30.5566 20.544 30.3949L16.8996 26.5302C16.7513 26.3726 16.6351 26.1868 16.5575 25.9836C16.4799 25.7803 16.4425 25.5636 16.4474 25.3456C16.4523 25.1277 16.4994 24.9129 16.5861 24.7134C16.6728 24.514 16.7973 24.3339 16.9525 24.1833C17.1077 24.0327 17.2907 23.9146 17.4908 23.8359C17.691 23.7571 17.9045 23.7191 18.1191 23.7241C18.3338 23.729 18.5453 23.7769 18.7418 23.8649C18.9382 23.9529 19.1156 24.0793 19.2639 24.237L21.5068 26.6155C23.0311 24.5055 25.9538 21.0403 29.9062 18.984C30.0971 18.8848 30.3055 18.8247 30.5194 18.8072C30.7332 18.7897 30.9484 18.8152 31.1525 18.8822C31.3567 18.9491 31.5458 19.0562 31.7092 19.1974C31.8726 19.3386 32.007 19.5111 32.1048 19.705C32.2025 19.8989 32.2617 20.1105 32.2789 20.3276C32.2961 20.5448 32.271 20.7632 32.2051 20.9705C32.1391 21.1778 32.0336 21.3699 31.8946 21.5358C31.7555 21.7017 31.5857 21.8382 31.3947 21.9374H31.3931Z" fill="#00E54A"/>
<path d="M37.2942 51.65C34.4027 51.5094 28.9789 51.8411 25.1136 55.6252C24.7127 56.0203 24.3386 56.4425 23.9937 56.8887C23.6488 56.4425 23.2747 56.0203 22.8738 55.6252C19.0085 51.8348 13.5832 51.5094 10.6932 51.65C9.76571 51.6913 8.88714 52.084 8.23069 52.7506C7.57423 53.4171 7.18752 54.3092 7.1468 55.2509C7.00992 58.1838 7.33501 63.6926 11.0618 67.6174C13.7496 70.4476 17.6693 71.9211 22.7276 72.0001C22.8738 72.0001 25.6409 72.0001 26.0375 71.978C30.7209 71.7648 34.3793 70.3023 36.9256 67.6174C40.6586 63.6926 40.979 58.1838 40.8422 55.2509C40.8014 54.3089 40.4145 53.4166 39.7577 52.75C39.1009 52.0834 38.222 51.691 37.2942 51.65ZM19.3647 62.7734L18.4999 65.4268C18.6337 65.4742 21.2297 66.4028 22.5534 69.1525C18.3801 69.0498 15.1915 67.8716 13.0777 65.6447C10.0803 62.486 9.82681 57.8616 9.94347 55.3789C9.95376 55.1445 10.0502 54.9225 10.2137 54.7567C10.3773 54.5909 10.5961 54.4934 10.827 54.4834C13.2643 54.3649 17.8264 54.6224 20.9373 57.6658C23.0371 59.719 24.1881 62.775 24.3717 66.7519C23.1459 64.934 21.3973 63.5446 19.3647 62.7734ZM34.9082 65.64C33.0868 67.5605 30.4627 68.6992 27.0983 69.0419C27.1572 68.7765 27.1885 68.5054 27.1917 68.2333C27.2274 64.8393 26.6893 61.9269 25.5865 59.5215C26.0002 58.845 26.4938 58.2223 27.0563 57.6674C29.8095 54.973 33.6949 54.4628 36.2427 54.4628C36.5725 54.4628 36.8805 54.4628 37.1604 54.4849C37.3913 54.495 37.6101 54.5925 37.7737 54.7583C37.9372 54.9241 38.0336 55.146 38.0439 55.3805C38.159 57.8616 37.9071 62.4876 34.9082 65.6447V65.64Z" fill="white"/>
</svg>
